Coordinates
version=1
nRows=14
nColumns=40
inDegrees=yes

Units are S.I. units (second, meters, Newtons, ...)
Angles are in degrees.

endheader
time	pelvis_tilt	pelvis_list	pelvis_rotation	pelvis_tx	pelvis_ty	pelvis_tz	hip_flexion_r	hip_adduction_r	hip_rotation_r	knee_angle_r	knee_angle_r_beta	ankle_angle_r	subtalar_angle_r	mtp_angle_r	hip_flexion_l	hip_adduction_l	hip_rotation_l	knee_angle_l	knee_angle_l_beta	ankle_angle_l	subtalar_angle_l	mtp_angle_l	lumbar_extension	lumbar_bending	lumbar_rotation	arm_flex_r	arm_add_r	arm_rot_r	elbow_flex_r	pro_sup_r	wrist_flex_r	wrist_dev_r	arm_flex_l	arm_add_l	arm_rot_l	elbow_flex_l	pro_sup_l	wrist_flex_l	wrist_dev_l
      1.69000000	     -2.99293469	     -1.99502256	      8.25233977	      0.15791729	      0.88037113	      1.44855661	     27.20677295	     -2.48009293	    -15.45914876	    -25.12097169	     -0.43844367	     -1.30743007	     -9.86671850	      8.03249539	      1.83959057	      4.83327808	      2.47459772	    -33.90769406	     -0.59180090	     12.38015038	      9.65560638	     -4.08861965	     -1.40952306	      1.26238834	    -10.96761719	     -4.27329604	     -6.70853717	    -21.55111490	     21.98814623	     89.95437384	      0.00000000	      0.00000000	      6.75001735	      9.79838235	     17.14513166	     40.49381264	     89.95437384	      0.00000000	      0.00000000
      1.70000000	     -3.11878683	     -1.83734861	      8.05962037	      0.16570148	      0.88081564	      1.45079692	     27.05827074	     -2.41290829	    -15.21918691	    -25.52818999	     -0.44555097	     -1.35977112	     -9.52205191	      7.84989271	      1.78018954	      4.81120287	      2.22908712	    -34.43406146	     -0.60098775	     11.91114321	      9.36540364	     -3.99102034	     -1.12209322	      1.05394428	    -10.83175043	     -4.45626131	     -6.64948451	    -21.43880326	     22.32458673	     89.95437384	      0.00000000	      0.00000000	      6.24417654	      9.83260473	     17.12957409	     40.43781163	     89.95437384	      0.00000000	      0.00000000
      1.71000000	     -3.09243583	     -2.07784392	      7.85818354	      0.17292303	      0.88148084	      1.45320830	     26.69046828	     -1.76186640	    -14.79429287	    -25.72343071	     -0.44895856	     -0.55060298	     -9.62981707	      7.63149467	      2.09663383	      5.26691179	      2.14451113	    -35.72854755	     -0.62358079	     10.36287007	     10.55175401	     -3.69539074	     -1.01738560	      1.34612902	    -10.69522506	     -4.32605189	     -6.72429504	    -21.19441274	     22.30995757	     89.95437384	      0.00000000	      0.00000000	      6.01747442	      9.78068237	     17.21178680	     39.91446147	     89.95437384	      0.00000000	      0.00000000
      1.72000000	     -3.10612105	     -2.09028423	      7.77515456	      0.18011048	      0.88208773	      1.45535286	     26.31000023	     -1.44936780	    -14.56727402	    -25.89051967	     -0.45187481	     -0.17640301	     -9.65589746	      7.47412040	      2.42097234	      5.41982404	      1.81767812	    -36.95491620	     -0.64498496	      9.14653057	     11.11805464	     -3.48028699	     -0.91209784	      1.35981997	    -10.65330298	     -4.33412140	     -6.73161626	    -20.93508563	     22.53847260	     89.95437384	      0.00000000	      0.00000000	      5.71406470	      9.79238058	     17.21607022	     39.58636601	     89.95437384	      0.00000000	      0.00000000
      1.73000000	     -3.52007878	     -1.98085634	      7.66205987	      0.18654108	      0.88212545	      1.45716618	     26.37644586	     -1.34917802	    -14.33509149	    -25.95291852	     -0.45296388	     -0.06443434	    -10.03765039	      7.40702743	      3.35800718	      5.19666208	      1.18835551	    -38.43803500	     -0.67087027	      7.95071996	     12.43109669	     -3.20294157	     -0.44711544	      1.23098255	    -10.60902447	     -4.32342799	     -6.78414962	    -20.54188404	     22.80058443	     89.95437384	      0.00000000	      0.00000000	      5.36671348	      9.74271293	     17.28090314	     39.27736776	     89.95437384	      0.00000000	      0.00000000
      1.74000000	     -3.42308517	     -1.86653355	      7.49156684	      0.19347013	      0.88289278	      1.45937655	     25.89440739	     -1.19041417	    -14.23118224	    -26.16324882	     -0.45663483	      0.35291135	     -9.79894411	      7.18789298	      3.72615421	      5.24284994	      1.08772907	    -39.90876134	     -0.69653929	      6.63480883	     12.55449487	     -2.97564402	     -0.53543019	      1.12828905	    -10.41859770	     -4.25940916	     -6.77466663	    -20.29216494	     23.00946865	     89.95437384	      0.00000000	      0.00000000	      5.09216822	      9.76194111	     17.21065230	     38.96975657	     89.95437384	      0.00000000	      0.00000000
      1.75000000	     -3.48614400	     -2.09955342	      7.51912408	      0.20035673	      0.88339090	      1.46157420	     25.42022161	     -0.69572327	    -14.35889834	    -26.01211749	     -0.45399710	      0.96907545	     -9.69026876	      7.01039290	      4.53617655	      5.69525630	      0.92451250	    -41.57739511	     -0.72566244	      4.70796143	     13.37793894	     -2.57722852	     -0.36040540	      1.37269091	    -10.49428579	     -4.17289636	     -6.81359035	    -19.95915871	     23.19387750	     89.95437384	      0.00000000	      0.00000000	      4.79431780	      9.79125939	     17.13050810	     38.43857958	     89.95437384	      0.00000000	      0.00000000
      1.76000000	     -3.53427762	     -2.22667725	      7.45433125	      0.20695370	      0.88384506	      1.46368628	     25.01227108	     -0.35284639	    -14.42885550	    -25.97424934	     -0.45333617	      1.29543022	     -9.46175250	      6.84383991	      5.39600744	      5.97887005	      0.74547596	    -43.41973007	     -0.75781725	      3.08061180	     13.93048314	     -2.17980708	     -0.26416134	      1.52434272	    -10.42225427	     -4.08679319	     -6.88903921	    -19.56607549	     23.42361280	     89.95437384	      0.00000000	      0.00000000	      4.53087444	      9.76568502	     17.07419018	     37.98162892	     89.95437384	      0.00000000	      0.00000000
      1.77000000	     -3.48953009	     -2.37199119	      7.45372664	      0.21355688	      0.88438068	      1.46581580	     24.47789096	      0.01153072	    -14.60503456	    -25.92530162	     -0.45248187	      1.73235780	     -9.23179772	      6.67416791	      6.23518589	      6.33980235	      0.62023121	    -45.31933038	     -0.79097153	      1.48209163	     14.41602763	     -1.75655915	     -0.26714216	      1.68779872	    -10.38452241	     -3.95838127	     -6.92975240	    -19.24908530	     23.60701451	     89.95437384	      0.00000000	      0.00000000	      4.31674418	      9.75974991	     17.02163058	     37.45720957	     89.95437384	      0.00000000	      0.00000000
      1.78000000	     -3.45744489	     -2.51331169	      7.46396758	      0.21987466	      0.88483777	      1.46764431	     23.96805473	      0.32263428	    -14.78726265	    -25.85886577	     -0.45132235	      2.14105840	     -8.89131960	      6.49695362	      7.19034433	      6.61650496	      0.38423524	    -47.34423885	     -0.82631285	      0.08622663	     14.86659212	     -1.29300092	     -0.28520607	      1.88507795	    -10.36646808	     -3.78567850	     -7.02786262	    -18.92758128	     23.83463143	     89.95437384	      0.00000000	      0.00000000	      4.11767925	      9.71012491	     16.98438501	     36.92024200	     89.95437384	      0.00000000	      0.00000000
      1.79000000	     -3.45193032	     -2.54555398	      7.43206063	      0.22593054	      0.88518550	      1.46953648	     23.50028657	      0.52673339	    -14.98243150	    -25.82228230	     -0.45068385	      2.59686458	     -8.51168055	      6.32040907	      8.18971429	      6.73458110	      0.16336949	    -49.39397407	     -0.86208748	     -0.74788101	     15.11183099	     -0.86454775	     -0.32855813	      1.93836017	    -10.24333090	     -3.60781961	     -7.09563634	    -18.62278984	     24.04477144	     89.95437384	      0.00000000	      0.00000000	      3.97976766	      9.66690419	     16.97926567	     36.38908337	     89.95437384	      0.00000000	      0.00000000
      1.80000000	     -3.26249498	     -2.27231627	      7.21661802	      0.23197721	      0.88586856	      1.47130501	     22.87081841	      0.43822008	    -14.99405369	    -25.90427777	     -0.45211494	      2.78568170	     -8.19514567	      6.15755838	      8.83967846	      6.53816739	      0.23418795	    -51.26985441	     -0.89482777	     -1.16235838	     15.04899294	     -0.71682536	     -0.65883094	      1.71419775	     -9.92576217	     -3.36588565	     -7.13596486	    -18.44290274	     24.26335697	     89.95437384	      0.00000000	      0.00000000	      3.80476872	      9.63516751	     16.99359338	     36.02746266	     89.95437384	      0.00000000	      0.00000000
      1.81000000	     -3.24001056	     -2.56874874	      7.29332886	      0.23764202	      0.88615246	      1.47289343	     22.37337523	      0.91947908	    -15.18409121	    -25.73282125	     -0.44912246	      3.41401699	     -7.79666556	      5.97006456	     10.05180436	      6.91302576	      0.00615099	    -53.42953907	     -0.93252137	     -1.68306361	     15.94237879	     -0.28126515	     -0.69046841	      2.08978489	     -9.92725437	     -3.05696889	     -7.27541594	    -18.24049092	     24.41354080	     89.95437384	      0.00000000	      0.00000000	      3.79524245	      9.51668112	     17.03260081	     35.20582395	     89.95437384	      0.00000000	      0.00000000
      1.82000000	     -3.33034687	     -2.76441758	      7.23503948	      0.24314031	      0.88618691	      1.47459342	     22.11449592	      1.24747743	    -15.36306567	    -25.74423832	     -0.44932172	      3.76523849	     -7.35356246	      5.78720838	     11.36197878	      7.16986804	     -0.05570726	    -55.54086389	     -0.96937094	     -1.93912133	     16.53671715	      0.31993912	     -0.65795495	      2.33451790	     -9.72477532	     -2.85064468	     -7.37278532	    -18.07668737	     24.73307339	     89.95437384	      0.00000000	      0.00000000	      3.65455362	      9.35212611	     17.19944080	     34.76142958	     89.95437384	      0.00000000	      0.00000000
